<?xml version="1.0" encoding="utf-8"?>
<svg xmlns="http://www.w3.org/2000/svg"
	xmlns:xlink="http://www.w3.org/1999/xlink"
	width="200px" height="50px" viewBox="0 0 200 50">
<style type="text/css"><![CDATA[
.style0 {
  font-size: 14px;
  font-family: "Roboto-Bold";
  fill: rgb(255,255,255);
}
.style1 {
  font-size: 14px;
  font-family: "FontAwesome";
  fill: rgb(255,255,255);
}
]]></style>
<clipPath id="clip0"><path fillRule="evenodd" d="M 25 0C 25 0 175 0 175 0 188.81 0 200 11.19 200 25 200 38.81 188.81 50 175 50 175 50 25 50 25 50 11.19 50-0 38.81-0 25-0 11.19 11.19 0 25 0Z"/></clipPath><defs>
<symbol id="symbol0"><path fillRule="evenodd" d="M 25 0C 25 0 175 0 175 0 188.81 0 200 11.19 200 25 200 38.81 188.81 50 175 50 175 50 25 50 25 50 11.19 50-0 38.81-0 25-0 11.19 11.19 0 25 0Z"/></symbol></defs>
<g><g><use xlink:href="#symbol0" x="0" y="0" width="200" height="50" fill="rgb(255,115,115)"/><use xlink:href="#symbol0" x="0" y="0" width="200" height="50" fill="none" stroke="rgb(45,49,57)" stroke-width="2.00px" clip-path="url(#clip0)"/></g><text transform="translate(38.00,29.06)" class="style0"><tspan x="0.00 7.35 14.36 20.36 23.63 26.60 31.15 38.84 45.53 50.08 57.09 60.06 63.34 71.11 72.91 77.87 85.45 92.47 98.66 105.67 113.38 117.93 124.60" fill="rgb(255,255,255)">Vezi toate in “Recente”</tspan></text><text transform="translate(18.36,28.65)" class="style1"><tspan x="0.00" fill="rgb(255,255,255)"></tspan></text></g></svg>